# Blender 4.2.0 Beta
# www.blender.org
mtllib eyeLiteCentered.mtl
o Eye
v -0.000281 0.006803 -0.004519
v -0.000238 0.006743 0.003840
v -0.000958 0.007723 0.001405
v -0.000380 0.005274 -0.006339
v -0.003285 0.003911 -0.006574
v -0.000122 -0.000089 0.006684
v -0.005228 0.003396 0.004813
v -0.006720 0.003277 -0.003548
v -0.003306 -0.000837 0.006987
v -0.002733 0.001718 -0.007770
v -0.007792 0.000815 -0.002583
v -0.006587 0.001297 -0.004924
v -0.004865 0.000316 -0.006900
v -0.004510 -0.000652 0.006344
v -0.006786 -0.002441 0.003484
v -0.006976 -0.003442 0.002035
v -0.004274 -0.004652 0.004764
v -0.004701 -0.005816 0.002916
v -0.000791 -0.005114 0.005873
v 0.000339 -0.003383 0.006972
v -0.002240 -0.006118 0.004519
v -0.002060 -0.007412 0.002211
v -0.003003 -0.007536 0.000547
v -0.002244 -0.006160 -0.005192
v -0.001013 -0.003082 -0.007787
v 0.000894 -0.004551 0.006222
v 0.002049 -0.006420 0.004159
v 0.002047 -0.006788 -0.004214
v 0.002925 -0.004105 0.005886
v 0.004016 -0.005629 -0.004534
v 0.002955 -0.003771 -0.006876
v 0.001093 -0.003035 -0.007771
v -0.000105 -0.000089 -0.008425
v 0.004129 -0.003401 0.005651
v 0.006029 -0.003999 -0.003810
v 0.005313 -0.002598 -0.005823
v 0.004251 0.000301 -0.007135
v 0.003100 0.000983 0.006944
v 0.006687 0.002184 -0.004072
v 0.007234 0.002947 -0.001567
v 0.005064 0.002587 -0.005980
v 0.002912 0.001353 -0.007721
v 0.004894 0.005469 0.002534
v 0.004983 0.006111 0.000015
v -0.000422 0.003132 0.006983
v 0.000612 0.005520 0.005355
v 0.001772 0.007738 -0.000955
v -0.003548 0.006957 0.001272
v -0.001339 0.007775 -0.001543
v -0.002656 0.003547 0.006310
v -0.004352 0.005039 -0.004895
v -0.002387 0.007108 -0.003224
v -0.000712 0.004337 0.006335
v -0.002228 0.005512 -0.005747
v -0.001372 0.002989 -0.007735
v -0.005898 0.005148 0.001550
v -0.005104 0.005469 -0.003297
v -0.002657 0.005389 0.004949
v -0.003839 0.006086 0.003235
v -0.004376 0.006686 -0.000957
v -0.007419 0.003273 -0.000582
v -0.006023 0.005222 -0.001204
v -0.007154 0.002584 0.002408
v -0.002965 0.001734 0.006953
v -0.004699 0.002452 -0.006495
v -0.007758 0.000848 0.001958
v -0.008103 -0.000443 -0.000611
v -0.005952 0.000792 0.005107
v -0.007519 -0.002055 -0.002896
v -0.005886 -0.001474 -0.005823
v -0.007859 -0.001797 0.000828
v -0.007054 -0.004077 -0.001163
v -0.003942 -0.002223 -0.007113
v -0.006009 -0.001833 0.004796
v -0.006155 -0.005340 -0.000768
v -0.005658 -0.004951 -0.003572
v -0.003005 -0.001535 -0.007779
v -0.005506 -0.003427 -0.005304
v -0.005761 -0.005641 0.000951
v -0.001651 -0.002943 0.006978
v -0.002837 -0.006965 -0.003578
v -0.003522 -0.003335 0.006172
v -0.004050 -0.005236 -0.005089
v -0.000105 -0.000089 0.007169
v -0.002404 -0.007668 -0.001485
v -0.000966 -0.004707 -0.006926
v -0.002774 -0.004109 -0.006840
v 0.000319 -0.008054 0.000706
v 0.000071 -0.007856 -0.002469
v -0.000007 -0.006561 -0.005146
v -0.000105 -0.000089 -0.008048
v -0.000161 -0.007007 0.003720
v -0.000105 -0.000089 -0.008233
v 0.002101 -0.007698 -0.001624
v 0.001565 -0.005090 -0.006490
v 0.004359 -0.006589 -0.002019
v 0.002951 -0.007414 0.000809
v 0.002735 -0.001802 0.006997
v 0.003949 -0.006469 0.002337
v 0.005588 -0.005744 0.000163
v 0.006720 -0.004072 -0.001793
v 0.004984 -0.005260 0.003068
v 0.005973 -0.003695 0.003429
v 0.007083 -0.003499 0.000784
v 0.006680 -0.001689 0.003587
v 0.007712 -0.001631 -0.001166
v 0.007167 -0.001267 -0.003572
v 0.006958 0.000647 0.003452
v 0.007627 -0.001243 0.001419
v 0.007784 0.001099 0.000465
v 0.005523 -0.001796 0.005094
v 0.007703 0.000801 -0.002081
v 0.003070 -0.001119 -0.007732
v 0.004600 -0.000405 0.006152
v 0.005725 -0.000411 -0.005938
v 0.006818 0.002860 0.002477
v 0.005486 0.004971 -0.003108
v 0.004421 0.004846 -0.004818
v 0.004440 0.002018 0.005956
v 0.005718 0.003191 0.004081
v 0.006481 0.004572 -0.000438
v 0.003642 0.004495 0.005120
v 0.003083 0.004532 -0.006123
v 0.003375 0.007039 0.000802
v 0.003883 0.006488 -0.002628
v 0.001903 0.005875 -0.005455
v 0.001634 0.002861 0.006930
v 0.002665 0.006371 0.003516
v 0.002159 0.003299 -0.007321
v 0.000376 0.003223 -0.007737
v -0.000105 -0.000089 -0.008335
v 0.001301 0.007453 0.001918
v 0.001656 0.007360 -0.002776
v -0.000110 -0.000089 0.007221
v -0.004622 -0.006633 -0.001395
vn -0.0247 0.6586 -0.7521
vn 0.0612 0.3637 -0.9295
vn -0.1411 0.3409 -0.9295
vn 0.0053 0.0046 -1.0000
vn -0.1193 0.9692 0.2154
vn 0.2294 0.9715 -0.0589
vn -0.1469 0.9812 -0.1251
vn -0.0195 0.8672 -0.4977
vn -0.2971 0.8868 -0.3540
vn 0.1037 0.6968 0.7097
vn -0.3124 0.6894 0.6535
vn -0.0717 0.5667 0.8208
vn -0.2634 0.7018 -0.6619
vn -0.0366 0.8556 0.5163
vn -0.4601 0.7673 0.4467
vn -0.4193 0.8880 0.1887
vn -0.5215 0.8506 -0.0667
vn -0.0316 0.2964 0.9545
vn -0.3378 0.4547 0.8241
vn -0.2803 0.1752 -0.9438
vn -0.3901 0.5015 -0.7722
vn -0.7242 0.6451 0.2438
vn -0.7461 0.6587 -0.0972
vn -0.9148 0.4034 -0.0181
vn -0.6223 0.7004 -0.3495
vn -0.8149 0.4258 -0.3933
vn -0.5868 0.3330 -0.7381
vn -0.5372 0.6316 -0.5590
vn -0.8132 0.1547 -0.5611
vn -0.6388 0.4364 0.6336
vn -0.8668 0.3512 0.3541
vn -0.5877 0.0481 -0.8076
vn -0.7395 0.1157 0.6632
vn -0.3146 0.1896 0.9301
vn -0.9563 0.1111 -0.2706
vn -0.5665 -0.0636 0.8216
vn -0.3052 -0.0781 0.9491
vn -0.9516 0.0991 0.2910
vn -0.2955 -0.1366 -0.9455
vn -0.9992 -0.0280 -0.0288
vn -0.7424 -0.1645 -0.6495
vn -0.9157 -0.2407 -0.3217
vn -0.7324 -0.2168 0.6455
vn -0.8306 -0.2851 0.4784
vn -0.9652 -0.2173 0.1456
vn -0.8450 -0.4500 0.2889
vn -0.6789 -0.4177 -0.6038
vn -0.5036 -0.2848 -0.8157
vn -0.6954 -0.6076 -0.3837
vn -0.8755 -0.4743 -0.0923
vn -0.4313 -0.4105 0.8034
vn -0.5389 -0.5585 0.6306
vn -0.7006 -0.6916 0.1756
vn -0.7479 -0.6614 -0.0565
vn -0.4993 -0.6414 -0.5825
vn -0.3532 -0.5001 -0.7907
vn -0.5763 -0.7105 0.4038
vn -0.3640 -0.9242 0.1159
vn -0.0916 -0.2971 -0.9504
vn -0.5609 -0.8172 -0.1326
vn -0.2653 -0.9555 -0.1290
vn -0.0958 -0.6350 0.7666
vn -0.1569 -0.2889 0.9444
vn -0.3409 -0.8580 -0.3843
vn -0.2547 -0.7564 -0.6025
vn -0.2762 -0.7476 0.6039
vn -0.2442 -0.9130 0.3269
vn 0.0077 -0.9663 -0.2574
vn 0.0505 -0.9886 0.1415
vn 0.1492 -0.5816 0.7997
vn 0.0523 -0.3232 0.9449
vn 0.0080 -0.8156 -0.5785
vn 0.0089 -0.8694 0.4941
vn -0.0913 -0.5895 -0.8026
vn 0.2057 -0.6354 -0.7443
vn 0.1238 -0.3021 -0.9452
vn 0.2811 -0.9475 -0.1524
vn 0.2713 -0.8413 -0.4676
vn 0.2734 -0.7863 0.5540
vn 0.3716 -0.9159 0.1517
vn 0.4070 -0.4526 -0.7934
vn 0.7076 -0.7031 0.0701
vn 0.4951 -0.8026 0.3329
vn 0.5599 -0.8037 -0.2017
vn 0.5174 -0.6819 -0.5169
vn 0.3677 -0.5358 0.7601
vn 0.5381 -0.4292 0.7254
vn 0.6343 -0.6375 0.4374
vn 0.3424 -0.1245 -0.9313
vn 0.8901 -0.4278 0.1573
vn 0.7674 -0.4495 0.4572
vn 0.8489 -0.4980 -0.1770
vn 0.7634 -0.4907 -0.4202
vn 0.2853 -0.1756 0.9422
vn 0.6680 -0.3211 -0.6713
vn 0.8555 -0.2061 0.4750
vn 0.7099 -0.1979 0.6759
vn 0.9644 -0.1453 0.2212
vn 0.9765 -0.1932 -0.0958
vn 0.9038 -0.1466 -0.4020
vn 0.6090 -0.0345 0.7924
vn 0.7390 -0.0309 -0.6730
vn 0.8692 0.0896 0.4863
vn 0.5596 0.0442 -0.8276
vn 0.3145 0.1664 -0.9346
vn 0.8422 0.2808 -0.4602
vn 0.9724 0.0977 -0.2120
vn 0.5840 0.2641 0.7676
vn 0.3126 0.1092 0.9436
vn 0.9819 0.1561 0.1071
vn 0.8176 0.5757 0.0067
vn 0.8653 0.3855 0.3203
vn 0.9130 0.3832 -0.1401
vn 0.7101 0.6253 -0.3236
vn 0.5733 0.6182 -0.5377
vn 0.6436 0.3350 -0.6881
vn 0.4002 0.5613 -0.7245
vn 0.2894 0.4320 -0.8542
vn 0.7224 0.4094 0.5572
vn 0.6352 0.6847 0.3573
vn 0.4554 0.5737 0.6808
vn 0.6309 0.7753 0.0279
vn 0.1916 0.3213 0.9274
vn 0.5012 0.8219 -0.2707
vn 0.4350 0.8892 0.1416
vn 0.2503 0.7451 -0.6182
vn 0.2088 0.9240 -0.3203
vn 0.3439 0.8060 0.4818
vn 0.1767 0.9434 0.2806
vn 0.0013 0.0038 1.0000
vt 0.622011 0.063845
vt 0.623015 0.054268
vt 0.614677 0.053708
vt 0.564307 0.049012
vt 0.980851 0.148234
vt 1.000000 0.085209
vt 0.973870 0.062475
vt 1.000000 0.004404
vt 0.951685 0.016027
vt 0.992354 0.252114
vt 0.931211 0.245933
vt 0.977804 0.294704
vt 0.622646 0.072782
vt 0.616535 0.067423
vt 0.617096 0.076598
vt 0.989702 0.210136
vt 0.913420 0.195691
vt 0.927801 0.140770
vt 0.910117 0.081508
vt 0.522882 0.867227
vt 0.541371 0.926843
vt 0.706529 0.875147
vt 0.603997 0.054048
vt 0.610847 0.062349
vt 0.866474 0.146847
vt 0.866506 0.073125
vt 0.819661 0.092141
vt 0.886577 0.016208
vt 0.813116 0.015131
vt 0.603326 0.063287
vt 0.610466 0.070903
vt 0.603255 0.075810
vt 0.597906 0.071358
vt 0.845930 0.243427
vt 0.810027 0.172861
vt 0.595160 0.060731
vt 0.773256 0.253086
vt 0.832777 0.301182
vt 0.769580 0.034635
vt 0.723391 0.797942
vt 0.831552 0.643476
vt 0.742949 0.636544
vt 0.769213 0.159246
vt 0.585834 0.052871
vt 0.743276 0.088755
vt 0.589093 0.067213
vt 0.589225 0.075923
vt 0.705643 0.245335
vt 0.726067 0.296386
vt 0.694414 0.201607
vt 0.716970 0.127999
vt 0.709770 0.027797
vt 0.676875 0.160414
vt 0.583163 0.069804
vt 0.584339 0.058854
vt 0.636973 0.009862
vt 0.667040 0.074148
vt 0.737525 0.499747
vt 0.580495 0.076308
vt 0.617367 0.242638
vt 0.626449 0.289907
vt 0.624439 0.138064
vt 0.635333 0.085160
vt 0.576607 0.070239
vt 0.575317 0.060761
vt 0.606706 0.186069
vt 0.557929 0.120764
vt 0.569859 0.052383
vt 0.595120 0.066319
vt 0.546824 0.063167
vt 0.587906 0.415604
vt 0.630671 0.506706
vt 0.571329 0.076531
vt 0.570511 0.070011
vt 0.551953 0.232869
vt 0.542193 0.170138
vt 0.497490 0.038069
vt 0.491682 0.126767
vt 0.419033 0.420397
vt 0.468430 0.484062
vt 0.564127 0.070381
vt 0.562989 0.077368
vt 0.502613 0.209916
vt 0.522206 0.282516
vt 0.567297 0.060283
vt 0.558570 0.063147
vt 0.556199 0.053396
vt 0.456885 0.061141
vt 0.558324 0.074207
vt 0.446887 0.222926
vt 0.467327 0.294605
vt 0.445223 0.004404
vt 0.437565 0.129698
vt 0.550938 0.060836
vt 0.375155 0.111870
vt 0.409236 0.172241
vt 0.403246 0.049861
vt 0.398316 0.004404
vt 0.278513 0.461101
vt 0.398469 0.284646
vt 0.552284 0.073031
vt 0.350797 0.271013
vt 0.375196 0.192090
vt 0.540644 0.053371
vt 0.320510 0.128275
vt 0.335820 0.200337
vt 0.334171 0.058799
vt 0.335433 0.012514
vt 0.284617 0.580680
vt 0.182671 0.539696
vt 0.543276 0.067122
vt 0.545635 0.075657
vt 0.287198 0.208608
vt 0.296901 0.252429
vt 0.273390 0.145626
vt 0.281283 0.074805
vt 0.278801 0.012103
vt 0.158629 0.653873
vt 0.535580 0.066387
vt 0.537723 0.075957
vt 0.236063 0.203689
vt 0.263654 0.288898
vt 0.533329 0.058782
vt 0.526002 0.053489
vt 0.208315 0.004404
vt 0.231417 0.049174
vt 0.176982 0.281095
vt 0.203158 0.301182
vt 0.226247 0.120104
vt 0.153723 0.092400
vt 0.185659 0.173048
vt 0.188036 0.061886
vt 0.132916 0.016206
vt 0.519271 0.072153
vt 0.525643 0.066165
vt 0.516781 0.064949
vt 0.516120 0.057428
vt 0.168462 0.220779
vt 0.116938 0.175080
vt 0.108302 0.253826
vt 0.110198 0.106151
vt 0.240205 0.756133
vt 0.214639 0.836827
vt 0.353176 0.852644
vt 0.528656 0.075024
vt 0.520918 0.077368
vt 0.085780 0.031803
vt 0.509638 0.054250
vt 0.070943 0.128472
vt 0.035898 0.083837
vt 0.511171 0.068736
vt 0.515375 0.077368
vt 0.024025 0.258327
vt 0.077454 0.301182
vt 0.035727 0.024260
vt 0.065195 0.203326
vt 0.012284 0.213890
vt 0.029675 0.156694
vt 0.001769 0.148578
vt 0.000000 0.036846
vt 0.497825 0.678503
vt 0.609607 0.076750
vt 0.896155 0.294305
vt 0.595824 0.076839
vt 0.561883 0.012593
vt 0.510286 0.077368
vt 0.011952 0.294309
vt 0.506107 0.063846
vt 0.007724 0.004404
vt 0.505760 0.072127
s 1
usemtl Material.002
f 4/1/1 130/2/2 55/3/3
f 91/4/4 55/3/3 130/2/2
f 3/5/5 47/6/6 49/7/7
f 1/8/8 52/9/9 49/7/7
f 46/10/10 58/11/11 53/12/12
f 1/13/8 54/14/13 52/15/9
f 2/16/14 3/5/5 59/17/15
f 3/5/5 48/18/16 59/17/15
f 49/7/7 60/19/17 48/18/16
f 45/20/18 53/21/12 50/22/19
f 55/3/3 10/23/20 5/24/21
f 59/17/15 48/18/16 56/25/22
f 48/18/16 60/19/17 56/25/22
f 60/19/17 62/26/23 56/25/22
f 56/25/22 62/26/23 61/27/24
f 62/26/23 57/28/25 8/29/26
f 5/24/21 65/30/27 51/31/28
f 91/4/4 10/23/20 55/3/3
f 8/32/26 65/30/27 12/33/29
f 7/34/30 56/25/22 63/35/31
f 65/30/27 10/23/20 13/36/32
f 7/34/30 68/37/33 64/38/34
f 8/29/26 11/39/35 61/27/24
f 64/40/34 14/41/36 9/42/37
f 12/33/29 65/30/27 13/36/32
f 68/37/33 63/35/31 66/43/38
f 10/23/20 77/44/39 13/36/32
f 91/4/4 77/44/39 10/23/20
f 66/43/38 61/27/24 67/45/40
f 12/33/29 13/36/32 70/46/41
f 12/33/29 70/46/41 69/47/42
f 68/37/33 74/48/43 14/49/36
f 68/37/33 66/43/38 15/50/44
f 66/43/38 67/45/40 71/51/45
f 11/39/35 69/52/42 67/45/40
f 15/50/44 71/51/45 16/53/46
f 67/45/40 69/52/42 71/51/45
f 69/47/42 70/46/41 78/54/47
f 13/36/32 73/55/48 70/46/41
f 69/52/42 76/56/49 72/57/50
f 9/42/37 14/41/36 82/58/51
f 69/47/42 78/54/47 76/59/49
f 74/48/43 17/60/52 82/61/51
f 16/53/46 71/51/45 72/57/50
f 79/62/53 72/57/50 75/63/54
f 72/57/50 76/56/49 75/63/54
f 76/59/49 78/54/47 83/64/55
f 78/54/47 73/55/48 87/65/56
f 15/50/44 16/53/46 18/66/57
f 79/62/53 23/67/58 18/66/57
f 91/4/4 25/68/59 77/44/39
f 23/67/58 135/69/60 85/70/61
f 82/58/51 19/71/62 80/72/63
f 81/73/64 83/64/55 24/74/65
f 82/61/51 17/60/52 21/75/66
f 17/60/52 18/66/57 21/75/66
f 18/66/57 22/76/67 21/75/66
f 85/70/61 89/77/68 88/78/69
f 19/71/62 26/79/70 20/80/71
f 81/73/64 90/81/72 89/82/68
f 21/75/66 92/83/73 19/84/62
f 22/76/67 23/67/58 88/78/69
f 22/76/67 88/78/69 92/83/73
f 86/85/74 95/86/75 90/81/72
f 86/85/74 32/87/76 95/86/75
f 91/4/4 32/87/76 25/68/59
f 88/78/69 89/77/68 94/88/77
f 89/82/68 90/81/72 28/89/78
f 19/84/62 27/90/79 26/91/70
f 89/77/68 28/92/78 94/88/77
f 27/90/79 88/78/69 97/93/80
f 95/86/75 32/87/76 31/94/81
f 97/93/80 100/95/82 99/96/83
f 94/88/77 96/97/84 97/93/80
f 28/92/78 30/98/85 96/97/84
f 20/80/71 26/79/70 29/99/86
f 26/91/70 27/90/79 29/100/86
f 95/86/75 31/94/81 30/101/85
f 29/100/86 27/90/79 34/102/87
f 27/90/79 99/96/83 102/103/88
f 99/96/83 100/95/82 102/103/88
f 32/87/76 113/104/89 31/94/81
f 102/103/88 104/105/90 103/106/91
f 91/4/4 113/104/89 32/87/76
f 96/97/84 101/107/92 100/95/82
f 96/97/84 35/108/93 101/107/92
f 98/109/94 29/99/86 34/110/87
f 30/101/85 36/111/95 35/112/93
f 34/102/87 102/103/88 103/106/91
f 103/106/91 105/113/96 111/114/97
f 31/94/81 113/104/89 36/111/95
f 103/106/91 104/105/90 109/115/98
f 101/107/92 106/116/99 104/105/90
f 101/107/92 107/117/100 106/116/99
f 98/109/94 34/110/87 114/118/101
f 36/111/95 115/119/102 107/120/100
f 111/114/97 108/121/103 114/122/101
f 113/104/89 37/123/104 115/119/102
f 91/4/4 42/124/105 113/104/89
f 107/117/100 39/125/106 112/126/107
f 114/122/101 119/127/108 38/128/109
f 110/129/110 121/130/111 116/131/112
f 40/132/113 39/125/106 117/133/114
f 118/134/115 41/135/116 123/136/117
f 42/124/105 129/137/118 41/135/116
f 120/138/119 116/131/112 43/139/120
f 120/138/119 43/139/120 122/140/121
f 121/130/111 44/141/122 43/139/120
f 38/142/109 119/143/108 127/144/123
f 39/145/106 118/134/115 117/146/114
f 121/130/111 125/147/124 44/141/122
f 42/124/105 130/148/2 129/137/118
f 91/4/4 130/148/2 42/124/105
f 43/139/120 44/141/122 124/149/125
f 44/141/122 47/150/6 124/149/125
f 118/134/115 126/151/126 125/152/124
f 122/140/121 46/153/10 127/154/123
f 125/147/124 133/155/127 47/150/6
f 127/144/123 53/21/12 45/20/18
f 128/156/128 2/157/14 46/153/10
f 126/151/126 129/137/118 130/148/2
f 128/156/128 124/149/125 132/158/129
f 132/158/129 3/159/5 2/157/14
f 132/158/129 47/150/6 3/159/5
f 47/150/6 133/155/127 49/160/7
f 127/144/123 45/20/18 84/161/130
f 38/142/109 127/144/123 84/161/130
f 98/109/94 38/142/109 84/161/130
f 20/80/71 98/109/94 84/161/130
f 80/72/63 20/80/71 84/161/130
f 9/42/37 80/72/63 84/161/130
f 64/40/34 9/42/37 84/161/130
f 45/20/18 64/40/34 84/161/130
f 1/13/8 4/1/1 54/14/13
f 2/16/14 58/11/11 46/10/10
f 55/3/3 54/14/13 4/1/1
f 2/16/14 59/17/15 58/11/11
f 49/7/7 48/18/16 3/5/5
f 49/7/7 52/9/9 60/19/17
f 52/9/9 57/28/25 60/19/17
f 45/20/18 50/22/19 64/40/34
f 54/14/13 51/31/28 52/15/9
f 52/15/9 51/31/28 57/162/25
f 53/12/12 58/11/11 50/163/19
f 54/14/13 5/24/21 51/31/28
f 55/3/3 5/24/21 54/14/13
f 58/11/11 7/34/30 50/163/19
f 59/17/15 7/34/30 58/11/11
f 60/19/17 57/28/25 62/26/23
f 62/26/23 8/29/26 61/27/24
f 51/31/28 8/32/26 57/162/25
f 50/163/19 7/34/30 64/38/34
f 51/31/28 65/30/27 8/32/26
f 59/17/15 56/25/22 7/34/30
f 10/23/20 65/30/27 5/24/21
f 56/25/22 61/27/24 63/35/31
f 8/32/26 12/33/29 11/164/35
f 68/37/33 14/49/36 64/38/34
f 7/34/30 63/35/31 68/37/33
f 63/35/31 61/27/24 66/43/38
f 11/39/35 67/45/40 61/27/24
f 12/33/29 69/47/42 11/164/35
f 68/37/33 15/50/44 74/48/43
f 66/43/38 71/51/45 15/50/44
f 77/44/39 73/55/48 13/36/32
f 71/51/45 69/52/42 72/57/50
f 14/49/36 74/48/43 82/61/51
f 15/50/44 17/60/52 74/48/43
f 70/46/41 73/55/48 78/54/47
f 72/57/50 79/62/53 16/53/46
f 73/55/48 77/44/39 87/65/56
f 16/53/46 79/62/53 18/66/57
f 82/58/51 80/72/63 9/42/37
f 78/54/47 87/65/56 83/64/55
f 15/50/44 18/66/57 17/60/52
f 76/59/49 83/64/55 81/73/64
f 77/44/39 25/68/59 87/65/56
f 75/63/54 135/69/60 79/62/53
f 76/56/49 135/69/60 75/63/54
f 76/56/49 81/165/64 135/69/60
f 23/67/58 22/76/67 18/66/57
f 135/69/60 23/67/58 79/62/53
f 135/69/60 81/165/64 85/70/61
f 21/75/66 19/84/62 82/61/51
f 87/65/56 24/74/65 83/64/55
f 87/65/56 86/85/74 24/74/65
f 22/76/67 92/83/73 21/75/66
f 25/68/59 86/85/74 87/65/56
f 19/71/62 20/80/71 80/72/63
f 85/70/61 88/78/69 23/67/58
f 81/165/64 89/77/68 85/70/61
f 24/74/65 90/81/72 81/73/64
f 86/85/74 90/81/72 24/74/65
f 90/81/72 95/86/75 28/89/78
f 92/83/73 27/90/79 19/84/62
f 25/68/59 32/87/76 86/85/74
f 88/78/69 27/90/79 92/83/73
f 94/88/77 28/92/78 96/97/84
f 97/93/80 99/96/83 27/90/79
f 88/78/69 94/88/77 97/93/80
f 97/93/80 96/97/84 100/95/82
f 29/99/86 98/109/94 20/80/71
f 95/86/75 30/101/85 28/89/78
f 27/90/79 102/103/88 34/102/87
f 100/95/82 104/105/90 102/103/88
f 30/98/85 35/108/93 96/97/84
f 31/94/81 36/111/95 30/101/85
f 34/102/87 103/106/91 111/114/97
f 101/107/92 104/105/90 100/95/82
f 103/106/91 109/115/98 105/113/96
f 104/105/90 106/116/99 109/115/98
f 35/108/93 107/117/100 101/107/92
f 36/111/95 107/120/100 35/112/93
f 34/102/87 111/114/97 114/122/101
f 113/104/89 115/119/102 36/111/95
f 107/117/100 112/126/107 106/116/99
f 105/113/96 108/121/103 111/114/97
f 105/113/96 109/115/98 108/121/103
f 106/116/99 110/129/110 109/115/98
f 106/116/99 112/126/107 110/129/110
f 113/104/89 42/124/105 37/123/104
f 109/115/98 110/129/110 108/121/103
f 114/118/101 38/142/109 98/109/94
f 115/119/102 39/145/106 107/120/100
f 115/119/102 41/135/116 39/145/106
f 108/121/103 119/127/108 114/122/101
f 115/119/102 37/123/104 41/135/116
f 108/121/103 120/138/119 119/127/108
f 37/123/104 42/124/105 41/135/116
f 108/121/103 116/131/112 120/138/119
f 108/121/103 110/129/110 116/131/112
f 40/132/113 121/130/111 110/129/110
f 112/126/107 40/132/113 110/129/110
f 112/126/107 39/125/106 40/132/113
f 40/132/113 117/133/114 121/130/111
f 120/138/119 122/140/121 119/127/108
f 116/131/112 121/130/111 43/139/120
f 41/135/116 118/134/115 39/145/106
f 117/133/114 125/147/124 121/130/111
f 117/146/114 118/134/115 125/152/124
f 119/127/108 122/140/121 127/154/123
f 129/137/118 123/136/117 41/135/116
f 43/139/120 128/156/128 122/140/121
f 123/136/117 126/151/126 118/134/115
f 123/136/117 129/137/118 126/151/126
f 43/139/120 124/149/125 128/156/128
f 125/147/124 47/150/6 44/141/122
f 125/152/124 126/151/126 133/166/127
f 46/153/10 53/167/12 127/154/123
f 122/140/121 128/156/128 46/153/10
f 124/149/125 47/150/6 132/158/129
f 130/148/2 4/168/1 126/151/126
f 128/156/128 132/158/129 2/157/14
f 133/155/127 1/169/8 49/160/7
f 126/151/126 1/170/8 133/166/127
f 126/151/126 4/168/1 1/170/8
l 33 131
l 91 93
l 6 134
l 93 131
l 84 134
